<svg width="32" height="32" viewBox="0 0 32 32" fill="none" xmlns="http://www.w3.org/2000/svg">
<path fill-rule="evenodd" clip-rule="evenodd" d="M8.39052 7.05718C8.91122 6.53648 9.75544 6.53648 10.2761 7.05718L16 12.781L21.7239 7.05718C22.2446 6.53648 23.0888 6.53648 23.6095 7.05718C24.1302 7.57788 24.1302 8.4221 23.6095 8.9428L16.9428 15.6095C16.4221 16.1302 15.5779 16.1302 15.0572 15.6095L8.39052 8.9428C7.86983 8.4221 7.86983 7.57788 8.39052 7.05718ZM8.39052 16.3905C8.91122 15.8698 9.75544 15.8698 10.2761 16.3905L16 22.1144L21.7239 16.3905C22.2446 15.8698 23.0888 15.8698 23.6095 16.3905C24.1302 16.9112 24.1302 17.7554 23.6095 18.2761L16.9428 24.9428C16.4221 25.4635 15.5779 25.4635 15.0572 24.9428L8.39052 18.2761C7.86983 17.7554 7.86983 16.9112 8.39052 16.3905Z" fill="#0F0F0F"/>
</svg>
