<svg width="24" height="25" viewBox="0 0 24 25" fill="none" xmlns="http://www.w3.org/2000/svg">
<path fill-rule="evenodd" clip-rule="evenodd" d="M11.4773 1.8366C11.8196 1.74392 12.1804 1.74392 12.5227 1.8366C12.9201 1.94419 13.2546 2.20685 13.5216 2.41648C13.5471 2.43649 13.572 2.45602 13.5963 2.47489L20.3786 7.75002C20.4047 7.77032 20.4306 7.79043 20.4563 7.81038C20.8329 8.10265 21.1647 8.36015 21.412 8.69445C21.629 8.98784 21.7906 9.31835 21.889 9.66974C22.0011 10.0702 22.0006 10.4902 22.0001 10.9669C22.0001 10.9994 22 11.0322 22 11.0653V18.3388C22 18.8659 22.0001 19.3207 21.9694 19.6953C21.9371 20.0906 21.8658 20.4838 21.673 20.8622C21.3854 21.4267 20.9265 21.8856 20.362 22.1732C19.9836 22.366 19.5904 22.4374 19.195 22.4697C18.8205 22.5003 18.3657 22.5002 17.8386 22.5002H6.16145C5.63431 22.5002 5.17956 22.5003 4.80499 22.4697C4.40964 22.4374 4.01643 22.366 3.63805 22.1732C3.07356 21.8856 2.61462 21.4267 2.327 20.8622C2.1342 20.4838 2.06289 20.0906 2.03059 19.6953C1.99998 19.3207 2 18.8659 2.00002 18.3388L2.00002 11.0653C2.00002 11.0322 1.99998 10.9994 1.99995 10.9669C1.99943 10.4902 1.99898 10.0702 2.11106 9.66974C2.20942 9.31834 2.37107 8.98783 2.58806 8.69445C2.83532 8.36015 3.16713 8.10265 3.54377 7.81036C3.56946 7.79042 3.59537 7.77032 3.62147 7.75002L10.4038 2.47489C10.428 2.45602 10.4529 2.43649 10.4784 2.41648C10.7454 2.20685 11.08 1.94419 11.4773 1.8366ZM11.9927 3.78177C11.9176 3.83198 11.8186 3.90822 11.6317 4.05359L4.84935 9.32872C4.35127 9.71611 4.25852 9.79926 4.19603 9.88375C4.1237 9.98154 4.06982 10.0917 4.03703 10.2088C4.0087 10.31 4.00002 10.4343 4.00002 11.0653V18.3002C4.00002 18.8768 4.0008 19.2491 4.02394 19.5324C4.04614 19.8041 4.08382 19.9048 4.10901 19.9542C4.20488 20.1424 4.35787 20.2954 4.54603 20.3912C4.59547 20.4164 4.69619 20.4541 4.96785 20.4763C5.25119 20.4995 5.62346 20.5002 6.20002 20.5002H17.8C18.3766 20.5002 18.7488 20.4995 19.0322 20.4763C19.3038 20.4541 19.4046 20.4164 19.454 20.3912C19.6422 20.2954 19.7951 20.1424 19.891 19.9542C19.9162 19.9048 19.9539 19.8041 19.9761 19.5324C19.9992 19.2491 20 18.8768 20 18.3002V11.0653C20 10.4343 19.9913 10.31 19.963 10.2088C19.9302 10.0917 19.8763 9.98154 19.804 9.88375C19.7415 9.79926 19.6488 9.71611 19.1507 9.32872L12.3684 4.0536C12.1815 3.90822 12.0825 3.83198 12.0073 3.78177C12.0048 3.78007 12.0023 3.77846 12 3.77694C11.9977 3.77846 11.9953 3.78007 11.9927 3.78177ZM7.87678 13.5318C8.41163 13.3941 8.95681 13.7161 9.09447 14.251C9.42756 15.5451 10.6035 16.5002 12 16.5002C13.3965 16.5002 14.5725 15.5451 14.9056 14.251C15.0432 13.7161 15.5884 13.3941 16.1233 13.5318C16.6581 13.6695 16.9801 14.2146 16.8424 14.7495C16.2874 16.9058 14.3312 18.5002 12 18.5002C9.66885 18.5002 7.7126 16.9058 7.1576 14.7495C7.01994 14.2146 7.34192 13.6695 7.87678 13.5318Z" fill="white"/>
</svg>
