<svg width="25" height="25" viewBox="0 0 25 25" fill="none" xmlns="http://www.w3.org/2000/svg">
<path d="M16.5 3.96776C17.9817 4.70411 19 6.23314 19 8C19 9.76686 17.9817 11.2959 16.5 12.0322M18.5 17.2664C20.0115 17.9503 21.3725 19.065 22.5 20.5M2.5 20.5C4.44649 18.0226 7.08918 16.5 10 16.5C12.9108 16.5 15.5535 18.0226 17.5 20.5M14.5 8C14.5 10.4853 12.4853 12.5 10 12.5C7.51472 12.5 5.5 10.4853 5.5 8C5.5 5.51472 7.51472 3.5 10 3.5C12.4853 3.5 14.5 5.51472 14.5 8Z" stroke="white" stroke-width="2" stroke-linecap="round" stroke-linejoin="round"/>
</svg>
