<svg width="332" height="332" viewBox="0 0 332 332" fill="none" xmlns="http://www.w3.org/2000/svg">
<path fill-rule="evenodd" clip-rule="evenodd" d="M112.624 56.4357V63.8713L104.92 64.1625L97.2164 64.4536V94.3638L104.92 94.6549L112.624 94.946V110.814H128.528V125.686L136.232 125.977L143.936 126.268L144.226 133.995L144.516 141.722H158.349V64.0388L150.646 63.7477L142.942 63.4566L142.649 56.2283L142.357 49H112.624V56.4357ZM190.158 56.4775V63.9551H175.248V141.722H190.158V156.677H267.693V141.722H282.603V110.814H267.693V95.8593H236.878V110.814H220.973V94.946L228.677 94.6549L236.381 94.3638V64.4536L228.677 64.1625L220.973 63.8713V49H190.158V56.4775ZM65.9045 103.337V110.814H50V141.722H65.9045V156.677H142.445V141.722H127.534V126.85L119.831 126.559L112.127 126.268L111.837 118.541L111.546 110.814H96.7194V95.8593H65.9045V103.337ZM205.069 118.292V125.769H190.158V141.722H206.063V126.766H220.973V110.814H205.069V118.292ZM159.343 149.199V156.677H174.254V141.722H159.343V149.199ZM144.433 165.151V172.629H158.349V157.674H144.433V165.151ZM175.248 165.107V172.629H190.246L190.158 165.4L190.202 157.674H182.703L175.248 157.586V165.107ZM65.6977 181.353L65.4074 189.079L57.7037 189.37L50 189.662V219.488H65.821L66.1112 227.215L66.4015 234.942H96.2224L96.5126 227.215L96.8029 219.488H111.546L111.837 211.761L112.127 204.034L119.831 203.743L127.534 203.452V188.581H142.445V173.626H65.9879L65.6977 181.353ZM159.343 181.103V188.581H174.254V173.626H159.343V181.103ZM190.071 180.854L190.158 188.581L198.359 188.665H206.063V203.536H220.89L221.18 211.263L221.47 218.99L229.133 219.28L236.795 219.571L237.085 227.256L237.375 234.942H267.195L267.486 227.215L267.776 219.488H282.603V189.578H267.693V173.626H190.071V180.854ZM144.228 196.806L143.936 204.034L136.273 204.325L128.611 204.616L128.321 212.301L128.031 219.987L120.368 220.277L112.706 220.568L112.416 228.253L112.127 235.939L104.397 236.231L96.6667 236.522L96.942 251.186L97.2164 265.849L104.92 266.14L112.624 266.431V282.299H142.361L142.651 274.573L142.942 266.846L150.646 266.555L158.349 266.264V189.578H144.52L144.228 196.806ZM175.248 227.963V266.347H190.158V282.299H220.973V266.431L228.677 266.14L236.381 265.849L236.654 250.894L236.928 235.939H221.47L221.181 228.253L220.891 220.568L213.229 220.277L205.566 219.987L205.275 212.26L204.985 204.533H190.158V189.578H175.248V227.963Z" fill="#EC3424"/>
</svg>
