<svg width="332" height="332" viewBox="0 0 332 332" fill="none" xmlns="http://www.w3.org/2000/svg">
<path fill-rule="evenodd" clip-rule="evenodd" d="M0 332.003H332V0H0V332.003ZM164.666 56.8293C160.349 95.6318 153.961 116.549 141.452 132.856C128.347 149.939 98.272 161.221 56.1617 164.852C41.3688 166.127 41.3062 166.143 48.2096 166.835C78.6731 169.888 87.5784 171.365 102.664 175.868C141.922 187.587 157.021 210.798 164.018 270.189C165.148 279.785 166.182 288.534 166.315 289.63C166.448 290.727 166.883 285.971 167.28 279.062C168.448 258.778 173.496 234.164 179.481 219.564C193.675 184.942 215.888 173.711 283.79 166.827L290.749 166.121L281.305 165.349C255.593 163.246 232.093 158.497 219.895 152.94C217.01 151.624 214.307 150.548 213.891 150.548C212.289 150.548 198.141 140.892 194.935 137.611C179.889 122.215 169.491 90.2261 167.216 52.3428L166.497 40.3787L164.666 56.8293Z" fill="#EC3424"/>
</svg>
