<svg width="332" height="332" viewBox="0 0 332 332" fill="none" xmlns="http://www.w3.org/2000/svg">
<path fill-rule="evenodd" clip-rule="evenodd" d="M151.217 71.7208L136.476 86.4426L146.472 96.3708L156.468 106.299L151.763 111.062C149.175 113.681 146.582 115.823 146.001 115.823C145.419 115.823 140.685 111.559 135.479 106.348L126.015 96.8733L111.749 111.071C103.903 118.88 97.483 125.571 97.483 125.941C97.483 126.822 125.451 154.707 126.335 154.707C126.709 154.707 131.238 150.459 136.398 145.268C142.078 139.554 146.236 136.111 146.935 136.544C147.571 136.937 149.946 139.292 152.212 141.776L156.333 146.293L109.658 192.793C83.987 218.367 61.688 240.647 60.105 242.302L57.227 245.311L71.597 259.833L85.967 274.354L125.48 234.969C147.212 213.308 165.378 195.584 165.849 195.584C166.32 195.584 184.144 213.081 205.458 234.467C226.772 255.853 244.738 273.35 245.383 273.35C246.028 273.35 252.886 267.005 260.624 259.251L274.692 245.152L224.951 195.552L175.21 145.953L180.38 140.661L185.55 135.37L195.524 145.276L205.498 155.182L220.236 140.487L234.975 125.793L220.351 111.214L205.728 96.634L196.182 106.229C190.932 111.505 186.248 115.823 185.772 115.823C185.297 115.823 182.75 113.639 180.112 110.969L175.317 106.116L184.9 96.5921C190.171 91.3538 194.483 86.6908 194.483 86.2282C194.483 85.7666 188.065 79.0009 180.22 71.1944L165.958 57L151.217 71.7208ZM160.696 81.2123L155.477 86.4805L160.264 91.1824C166.077 96.8892 165.888 96.8812 171.195 91.6878C176.529 86.4685 176.525 86.3628 170.699 80.642L165.914 75.9431L160.696 81.2123ZM121.126 120.663C115.463 126.396 115.464 126.375 120.771 131.568C126.036 136.72 125.99 136.721 131.332 131.357C136.5 126.167 136.359 124.788 130.126 119.594L125.77 115.963L121.126 120.663ZM160.696 121.093L155.477 126.361L160.264 131.063C166.127 136.82 166.249 136.822 171.356 131.299C176.454 125.784 176.48 126.199 170.699 120.522L165.914 115.823L160.696 121.093ZM200.123 120.98L195.263 126.05L200.281 131.052L205.298 136.054L207.817 134.078C209.203 132.991 211.56 130.652 213.056 128.88L215.775 125.659L210.916 120.741C205.073 114.826 206.043 114.804 200.123 120.98ZM71.447 151.253L57 165.683L71.742 180.379L86.483 195.077L101.134 180.469L115.785 165.862L102.845 153.057C95.728 146.013 89.003 139.479 87.9 138.536C85.951 136.871 85.487 137.23 71.447 151.253ZM230.479 151.221L216 165.683L230.757 180.383L245.514 195.085L260.189 180.37L274.865 165.654L260.424 151.213C252.481 143.272 245.752 136.77 245.47 136.767C245.188 136.763 238.442 143.268 230.479 151.221ZM80.92 160.752L76.033 165.7L81.258 170.909L86.483 176.118L91.703 170.914L96.924 165.71L92.953 161.625C86.687 155.178 86.445 155.16 80.92 160.752ZM160.992 160.126C155.464 166.045 155.46 166.252 160.771 171.448C166.018 176.583 165.504 176.594 170.977 171.215C176.528 165.758 176.545 166.143 170.492 160.199L165.501 155.298L160.992 160.126ZM239.97 160.702L235.033 165.7L240.258 170.909L245.483 176.118L250.708 170.909L255.933 165.7L250.996 160.702C248.28 157.953 245.799 155.704 245.483 155.704C245.167 155.704 242.686 157.953 239.97 160.702ZM142.427 178.922C135.225 185.408 135.194 186.495 142.057 192.101L146.453 195.694L151.427 190.656L156.401 185.618L151.793 180.631C146.376 174.768 146.926 174.869 142.427 178.922ZM179.97 180.642L175.033 185.64L180.258 190.849L185.483 196.058L190.708 190.849L195.933 185.64L190.996 180.642C188.28 177.893 185.799 175.644 185.483 175.644C185.167 175.644 182.686 177.893 179.97 180.642ZM120.733 200.075C115.466 205.398 115.447 205.11 121.431 210.987L126.379 215.845L131.486 210.726L136.593 205.608L131.697 200.596C125.872 194.634 126.106 194.645 120.733 200.075ZM200.691 199.859C195.419 205.215 195.442 206.114 200.998 211.551L205.513 215.969L210.723 210.774L215.933 205.58L210.996 200.582C205.056 194.57 205.843 194.625 200.691 199.859ZM100.824 220.238C95.529 225.988 95.479 225.081 101.415 230.911L106.348 235.754L110.899 231.372C116.506 225.973 116.533 225.141 111.275 219.799C106.06 214.501 106.108 214.499 100.824 220.238ZM141.604 239.83C128.337 253.065 117.483 264.357 117.483 264.925C117.483 265.492 119.406 267.838 121.757 270.138L126.03 274.319L145.497 254.892C156.204 244.207 165.418 235.472 165.973 235.483C166.529 235.493 175.703 244.243 186.361 254.926L205.739 274.35L210.111 270.126C212.516 267.803 214.483 265.61 214.483 265.251C214.483 264.893 203.512 253.613 190.104 240.183L165.725 215.766L141.604 239.83ZM219.97 220.522L215.033 225.52L220.258 230.729L225.483 235.939L230.708 230.729L235.933 225.52L230.996 220.522C228.28 217.773 225.799 215.524 225.483 215.524C225.167 215.524 222.686 217.773 219.97 220.522ZM81.075 239.914C75.432 245.381 75.418 244.962 81.448 250.883L86.413 255.759L91.626 250.562L96.839 245.364L91.948 240.414C86.038 234.431 86.701 234.462 81.075 239.914ZM241.983 238.307C240.333 239.838 238.114 242.08 237.052 243.291L235.122 245.49L239.511 249.949C244.97 255.495 245.999 255.492 251.485 249.919L255.904 245.43L250.981 240.447C245.231 234.627 245.802 234.762 241.983 238.307Z" fill="#EC3424" stroke="#EC3424"/>
</svg>
