<svg width="332" height="332" viewBox="0 0 332 332" fill="none" xmlns="http://www.w3.org/2000/svg">
    <g clip-path="url(#clip0_8_1073)">
        <path fill-rule="evenodd" clip-rule="evenodd"
            d="M0 167.015V334.031H332V0H0V167.015ZM154.9 47.986C94.6402 55.1988 49.4589 105.984 49.4589 166.505C49.4589 221.848 86.0354 268.855 139.858 282.681C155.787 286.773 179.824 286.752 196.167 282.635C221.5 276.25 244.511 261.553 260.064 241.822C265.394 235.059 276.498 217.124 276.498 215.277C276.498 214.797 277.435 212.323 278.578 209.78C286.219 192.802 287.712 175.062 287.374 105.215L287.094 47.4998L224.024 47.3802C189.336 47.3149 158.23 47.5866 154.9 47.986ZM167.185 74.8229C164.431 100.621 156.678 124.238 146.646 137.392C136.471 150.734 113.608 160.394 82.3532 164.557C71.2327 166.038 71.5919 166.64 84.766 168.595C96.1105 170.277 113.162 174.187 117.288 176.051C119.104 176.872 123.162 178.694 126.306 180.1C149.28 190.373 160.801 212.171 166.905 256.907L168.16 266.101L169.441 255.375C176.53 196.036 194.893 176.93 253.278 168.145C262.501 166.757 266.145 165.483 260.889 165.483C254.642 165.483 226.002 159.867 221.502 157.758C219.836 156.979 216.445 155.625 213.964 154.749C190.76 146.561 175.943 123.81 171.058 88.8705C170.155 82.4095 169.079 75.0547 168.668 72.5265L167.92 67.9298L167.185 74.8229Z"
            fill="#EA3223" />
    </g>
    <defs>
        <clipPath id="clip0_8_1073">
            <rect width="332" height="332" fill="white" />
        </clipPath>
    </defs>
</svg>