<svg width="332" height="332" viewBox="0 0 332 332" fill="none" xmlns="http://www.w3.org/2000/svg">
<path fill-rule="evenodd" clip-rule="evenodd" d="M166.163 82.7769C152.288 97.1619 140.159 109.381 139.211 109.931C137.891 110.696 136.23 110.133 132.147 107.536C119.391 99.4224 106.35 98.6141 92.7124 105.091C81.9865 110.184 81.4446 111.692 88.1694 117.723C91.1049 120.356 95.5884 124.552 98.1324 127.05C100.676 129.548 110.553 139.063 120.081 148.194C130.388 158.073 137.403 165.56 137.403 166.681C137.403 167.717 135.979 170.635 134.238 173.166C128.455 181.571 126.528 195.445 129.686 205.939C131.444 211.782 137.409 220.898 139.474 220.898C140.353 220.898 145.735 216.016 151.432 210.05C171.209 189.341 194.249 166.406 195.275 166.406C195.842 166.406 197.303 167.341 198.518 168.483C209.158 178.479 233.106 178.743 245.869 169.007C250.579 165.416 250.405 164.589 243.613 158.29C240.421 155.331 230.272 145.615 221.059 136.7C211.845 127.785 202.196 118.541 199.615 116.158C195.296 112.169 193.421 107.877 195.998 107.877C196.589 107.877 198.726 104.358 200.749 100.056C205.977 88.9326 206.128 77.5709 201.187 67.0539C197.45 59.098 195.326 56.3653 193.001 56.5167C192.116 56.5742 180.039 68.391 166.163 82.7769ZM185.841 116.372C172.742 123.139 158.872 123.261 146.166 116.72C141.218 114.172 140.683 114.845 143.842 119.641C150.895 130.346 150.953 146.612 143.983 159.083C141.253 163.968 141.435 164.169 146.012 161.341C158.947 153.347 176.849 153.566 189.526 161.873C191.633 163.253 191.428 162.51 187.657 155.075C181.57 143.076 181.382 132.032 187.076 121.127C189.144 117.17 190.733 113.953 190.608 113.979C190.484 114.004 188.339 115.081 185.841 116.372ZM160.66 222.364C117.248 265.788 119.949 260.936 135.17 268.169C162.601 281.205 194.398 274.629 216.476 251.352L219.36 248.311L217.781 243.435C216.913 240.752 215.068 234.244 213.683 228.971C202.759 187.406 201.868 184.57 199.732 184.57C199.024 184.57 181.442 201.577 160.66 222.364Z" fill="#EC3424"/>
</svg>
