<svg width="332" height="332" viewBox="0 0 332 332" fill="none" xmlns="http://www.w3.org/2000/svg">
<g clip-path="url(#clip0_8_1077)">
<path fill-rule="evenodd" clip-rule="evenodd" d="M-3.02736 166V330.991H334.018V1.00903H-3.02736V166ZM181.641 42.944C141.82 51.357 117.537 79.8585 117.642 118.067C117.722 147.261 131.766 163.849 157.593 165.257C175.696 166.244 190.729 158.293 197.213 144.304C203.878 129.923 196.152 113.922 185.09 119.199C180.323 121.473 180.516 125.973 185.617 131.507C191.621 138.02 190.348 141.453 182.567 139.745C174.756 138.029 171.045 127.145 171.047 105.957C171.05 73.2246 182.314 52.8999 202.098 49.9331L206.486 49.2752L208.336 63.2363C209.732 73.7786 210.298 86.2543 210.646 114.181L211.109 151.164L206.213 153.982C189.948 163.348 175.594 174.956 162.433 189.385C155.824 196.63 151.909 201.334 139.485 216.96C127.611 231.896 116.386 240.17 107.996 240.17C100.238 240.17 90.8106 233.383 89.2031 226.641L88.5037 223.706L95.6584 224.371C104.684 225.211 108.742 222.747 107.518 217.17C104.825 204.914 86.094 209.295 72.9916 225.247C52.0564 250.736 73.1793 290.927 107.471 290.852C131.854 290.8 147.971 276.327 167.045 237.357C184.922 200.835 188.742 193.551 195.009 184.054C198.631 178.564 203.49 172.029 205.806 169.532L210.016 164.991L209.521 173.568C208.95 183.491 205.245 220.243 203.833 229.999C202.305 240.563 202.154 240.17 207.767 240.17C215.131 240.17 228.574 237.357 237.318 233.986C247.915 229.9 254.128 224.742 258.265 216.592L261.584 210.054L260.884 175.413C259.941 128.716 262.149 73.4224 265.894 49.9513C266.602 45.5112 266.98 41.5383 266.735 41.1215C266.489 40.7057 249.854 40.3939 229.767 40.4292C195.086 40.4898 192.662 40.6159 181.641 42.944Z" fill="#EC3424"/>
</g>
<defs>
<clipPath id="clip0_8_1077">
<rect width="332" height="332" fill="white"/>
</clipPath>
</defs>
</svg>
