<svg width="693" height="77" viewBox="0 0 693 77" fill="none" xmlns="http://www.w3.org/2000/svg">
<g clip-path="url(#clip0_8_1144)">
<g clip-path="url(#clip1_8_1144)">
<path d="M385 0H-77V77H385V0Z" fill="white"/>
<path fill-rule="evenodd" clip-rule="evenodd" d="M0 77.0007H77V0H0V77.0007ZM38.1906 13.1803C37.1894 22.1797 35.7078 27.0309 32.8066 30.813C29.7672 34.775 22.792 37.3916 13.0255 38.2337C9.59461 38.5295 9.58 38.5332 11.1812 38.6937C18.2464 39.4017 20.3118 39.7443 23.8106 40.7887C32.9156 43.5066 36.4175 48.8899 38.0403 62.6643C38.3024 64.8899 38.5422 66.919 38.5731 67.1732C38.6039 67.4277 38.7048 66.3246 38.7969 64.7222C39.0678 60.0178 40.2385 54.3091 41.6266 50.923C44.9186 42.8932 50.0704 40.2884 65.8188 38.6918L67.4328 38.5281L65.2424 38.349C59.2791 37.8613 53.8288 36.7598 50.9997 35.471C50.3306 35.1658 49.7037 34.9163 49.607 34.9163C49.2357 34.9163 45.9544 32.6768 45.2108 31.9158C41.7212 28.345 39.3097 20.9259 38.782 12.1397L38.6153 9.36494L38.1906 13.1803Z" fill="#EC3424"/>
<path fill-rule="evenodd" clip-rule="evenodd" d="M112.071 16.634L108.653 20.0484L110.971 22.3511L113.289 24.6537L112.198 25.7584C111.598 26.3658 110.996 26.8626 110.862 26.8626C110.727 26.8626 109.629 25.8736 108.421 24.665L106.226 22.4676L102.918 25.7604C101.098 27.5716 99.609 29.1234 99.609 29.2092C99.609 29.4135 106.096 35.8808 106.301 35.8808C106.387 35.8808 107.438 34.8956 108.634 33.6917C109.952 32.3664 110.916 31.5679 111.078 31.6683C111.226 31.7595 111.777 32.3057 112.302 32.8818L113.258 33.9294L102.433 44.714C96.4789 50.6454 91.3071 55.8127 90.94 56.1965L90.2725 56.8944L93.6053 60.2625L96.9381 63.6303L106.102 54.4958C111.143 49.472 115.356 45.3613 115.465 45.3613C115.574 45.3613 119.708 49.4194 124.651 54.3794C129.595 59.3394 133.761 63.3974 133.911 63.3974C134.061 63.3974 135.651 61.9259 137.446 60.1275L140.709 56.8575L129.172 45.3539L117.636 33.8505L118.835 32.6232L120.034 31.3961L122.347 33.6935L124.661 35.991L128.079 32.5828L131.497 29.1749L128.105 25.7936L124.714 22.4121L122.5 24.6374C121.282 25.8611 120.196 26.8626 120.086 26.8626C119.975 26.8626 119.385 26.356 118.773 25.7368L117.661 24.6112L119.883 22.4024C121.106 21.1875 122.106 20.106 122.106 19.9987C122.106 19.8917 120.617 18.3225 118.798 16.512L115.49 13.2199L112.071 16.634ZM114.27 18.8354L113.059 20.0572L114.17 21.1477C115.518 22.4713 115.474 22.4694 116.705 21.2649C117.942 20.0544 117.941 20.0299 116.59 18.7031L115.48 17.6133L114.27 18.8354ZM105.092 27.9851C103.779 29.3147 103.779 29.3099 105.01 30.5143C106.231 31.7092 106.221 31.7094 107.459 30.4653C108.658 29.2616 108.625 28.9418 107.18 27.7372L106.17 26.895L105.092 27.9851ZM114.27 28.0848L113.059 29.3066L114.17 30.3971C115.529 31.7323 115.558 31.7328 116.742 30.4519C117.925 29.1728 117.931 29.269 116.59 27.9524L115.48 26.8626L114.27 28.0848ZM123.414 28.0586L122.287 29.2345L123.451 30.3946L124.614 31.5547L125.198 31.0964C125.52 30.8443 126.067 30.3018 126.414 29.8908L127.044 29.1438L125.917 28.0032C124.562 26.6313 124.787 26.6262 123.414 28.0586ZM93.5705 35.0798L90.2198 38.4265L93.6389 41.8349L97.0578 45.2438L100.456 41.8558L103.854 38.468L100.853 35.4982C99.2019 33.8645 97.6422 32.349 97.3864 32.1303C96.9344 31.7442 96.8268 31.8274 93.5705 35.0798ZM130.454 35.0723L127.096 38.4265L130.519 41.8358L133.941 45.2456L137.345 41.8328L140.749 38.4198L137.4 35.0705C135.557 33.2287 133.997 31.7208 133.931 31.7201C133.866 31.7191 132.301 33.2278 130.454 35.0723ZM95.7676 37.2828L94.6341 38.4304L95.846 39.6385L97.0578 40.8466L98.2684 39.6397L99.4793 38.4327L98.5583 37.4853C97.1051 35.9901 97.049 35.9859 95.7676 37.2828ZM114.338 37.1377C113.056 38.5104 113.055 38.5584 114.287 39.7635C115.504 40.9545 115.385 40.957 116.654 39.7095C117.942 38.4439 117.946 38.5332 116.542 37.1546L115.384 36.0179L114.338 37.1377ZM132.656 37.2712L131.511 38.4304L132.722 39.6385L133.934 40.8466L135.146 39.6385L136.358 38.4304L135.213 37.2712C134.583 36.6337 134.008 36.1121 133.934 36.1121C133.861 36.1121 133.286 36.6337 132.656 37.2712ZM110.033 41.497C108.362 43.0013 108.355 43.2534 109.947 44.5535L110.966 45.3869L112.12 44.2184L113.274 43.05L112.205 41.8933C110.949 40.5335 111.076 40.557 110.033 41.497ZM118.74 41.8959L117.595 43.0551L118.807 44.2632L120.019 45.4713L121.23 44.2632L122.442 43.0551L121.297 41.8959C120.667 41.2583 120.092 40.7367 120.019 40.7367C119.945 40.7367 119.37 41.2583 118.74 41.8959ZM105.001 46.4029C103.78 47.6375 103.775 47.5707 105.163 48.9337L106.311 50.0604L107.495 48.8732L108.68 47.6862L107.544 46.5238C106.193 45.141 106.247 45.1436 105.001 46.4029ZM123.546 46.3528C122.323 47.595 122.328 47.8035 123.617 49.0645L124.664 50.0892L125.872 48.8843L127.081 47.6797L125.936 46.5205C124.558 45.1262 124.741 45.1389 123.546 46.3528ZM100.384 51.0793C99.1558 52.4129 99.1442 52.2025 100.521 53.5547L101.665 54.6779L102.721 53.6616C104.021 52.4094 104.027 52.2164 102.808 50.9775C101.598 49.7487 101.609 49.7483 100.384 51.0793ZM109.842 55.6232C106.765 58.6928 104.248 61.3117 104.248 61.4434C104.248 61.5749 104.694 62.1191 105.239 62.6525L106.23 63.6222L110.745 59.1165C113.228 56.6384 115.365 54.6125 115.494 54.615C115.623 54.6174 117.75 56.6467 120.222 59.1244L124.717 63.6294L125.731 62.6497C126.288 62.1109 126.745 61.6023 126.745 61.5191C126.745 61.436 124.2 58.8199 121.09 55.7051L115.436 50.0421L109.842 55.6232ZM128.017 51.1452L126.872 52.3043L128.084 53.5124L129.296 54.7208L130.508 53.5124L131.719 52.3043L130.574 51.1452C129.944 50.5076 129.369 49.986 129.296 49.986C129.222 49.986 128.647 50.5076 128.017 51.1452ZM95.8035 55.6427C94.4947 56.9107 94.4915 56.8135 95.89 58.1867L97.0415 59.3176L98.2506 58.1123L99.4596 56.9067L98.3253 55.7587C96.9546 54.371 97.1083 54.3782 95.8035 55.6427ZM133.123 55.27C132.74 55.6251 132.225 56.1451 131.979 56.4259L131.531 56.9359L132.549 57.9701C133.815 59.2564 134.054 59.2557 135.326 57.9631L136.351 56.922L135.209 55.7663C133.876 54.4165 134.008 54.4478 133.123 55.27Z" fill="#EC3424" stroke="#EC3424"/>
<mask id="mask0_8_1144" style="mask-type:luminance" maskUnits="userSpaceOnUse" x="154" y="0" width="77" height="77">
<path d="M231 0H154V77H231V0Z" fill="white"/>
</mask>
<g mask="url(#mask0_8_1144)">
<path fill-rule="evenodd" clip-rule="evenodd" d="M154 38.7354V77.471H231V0H154V38.7354ZM189.926 11.1293C175.95 12.8021 165.471 24.5806 165.471 38.6171C165.471 51.4527 173.955 62.3549 186.437 65.5616C190.132 66.5106 195.705 66.5057 199.497 65.5509C205.372 64.07 210.709 60.6614 214.315 56.0852C215.551 54.5167 218.128 50.3571 218.128 49.9287C218.128 49.8174 218.344 49.2436 218.61 48.6538C220.382 44.7161 220.728 40.6017 220.649 24.4023L220.584 11.0165L205.956 10.9888C197.913 10.9736 190.698 11.0367 189.926 11.1293ZM192.774 17.3535C192.136 23.3368 190.338 28.8142 188.012 31.865C185.651 34.9594 180.349 37.1998 173.099 38.1653C170.52 38.5088 170.604 38.6484 173.661 39.1019C176.291 39.492 180.245 40.3988 181.203 40.8311C181.623 41.0215 182.564 41.4441 183.295 41.7702C188.622 44.1528 191.294 49.2083 192.711 59.5839L193.001 61.7162L193.298 59.2285C194.942 45.4662 199.2 41.035 212.743 38.9975C214.881 38.6756 215.725 38.3801 214.508 38.3801C213.058 38.3801 206.416 37.0776 205.372 36.5885C204.987 36.4078 204.198 36.0937 203.623 35.8906C198.243 33.9916 194.805 28.715 193.674 20.6115C193.463 19.113 193.214 17.4073 193.119 16.8209L192.945 15.7548L192.774 17.3535Z" fill="#EC3424"/>
</g>
<path fill-rule="evenodd" clip-rule="evenodd" d="M269.537 19.1983C266.32 22.5345 263.507 25.3685 263.287 25.496C262.98 25.6735 262.595 25.5429 261.649 24.9406C258.69 23.0588 255.665 22.8713 252.502 24.3735C250.016 25.5547 249.888 25.9045 251.449 27.3032C252.129 27.9139 253.17 28.8871 253.759 29.4664C254.35 30.0458 256.64 32.2526 258.85 34.3703C261.241 36.6615 262.867 38.398 262.867 38.6579C262.867 38.8982 262.538 39.575 262.134 40.162C260.793 42.1113 260.346 45.3291 261.079 47.763C261.485 49.1181 262.869 51.2324 263.347 51.2324C263.551 51.2324 264.799 50.1001 266.121 48.7164C270.708 43.9134 276.052 38.5942 276.291 38.5942C276.421 38.5942 276.759 38.811 277.042 39.0759C279.51 41.3942 285.065 41.4555 288.024 39.1974C289.116 38.3646 289.077 38.1727 287.5 36.7118C286.76 36.0256 284.406 33.7722 282.27 31.7045C280.132 29.6369 277.896 27.4929 277.297 26.9403C276.295 26.0151 275.859 25.0197 276.458 25.0197C276.595 25.0197 277.091 24.2035 277.559 23.2058C278.772 20.6259 278.807 17.9908 277.661 15.5517C276.794 13.7065 276.302 13.0727 275.762 13.1078C275.558 13.1211 272.756 15.8618 269.537 19.1983ZM274.101 26.9899C271.063 28.5593 267.846 28.5876 264.901 27.0706C263.753 26.4797 263.628 26.6357 264.36 27.7481C265.998 30.2308 266.009 34.0034 264.393 36.8958C263.76 38.0287 263.802 38.0753 264.864 37.4194C267.865 35.5654 272.016 35.6162 274.957 37.5428C275.444 37.8629 275.398 37.6906 274.524 35.9662C273.111 33.1833 273.067 30.6219 274.389 28.0927C274.867 27.175 275.236 26.4289 275.208 26.4349C275.178 26.4407 274.681 26.6905 274.101 26.9899ZM268.261 51.5724C258.194 61.6436 258.82 60.5183 262.35 62.1958C268.711 65.2192 276.087 63.6941 281.208 58.2955L281.876 57.5902L281.509 56.4593C281.307 55.8371 280.881 54.3277 280.558 53.1047C278.026 43.4646 277.819 42.8069 277.323 42.8069C277.158 42.8069 273.081 46.7513 268.261 51.5724Z" fill="#EC3424"/>
<mask id="mask1_8_1144" style="mask-type:luminance" maskUnits="userSpaceOnUse" x="308" y="0" width="77" height="77">
<path d="M385 0H308V77H385V0Z" fill="white"/>
</mask>
<g mask="url(#mask1_8_1144)">
<path fill-rule="evenodd" clip-rule="evenodd" d="M307.297 38.5V76.766H385.469V0.234009H307.297V38.5ZM350.127 9.95989C340.892 11.9111 335.261 18.5214 335.284 27.383C335.303 34.1539 338.561 38.0011 344.549 38.3277C348.75 38.5566 352.236 36.7125 353.738 33.4681C355.285 30.1327 353.493 26.4217 350.927 27.6455C349.821 28.1729 349.868 29.2166 351.05 30.5001C352.442 32.0106 352.147 32.8069 350.343 32.4107C348.532 32.0127 347.669 29.4884 347.671 24.5744C347.671 16.9828 350.283 12.2689 354.873 11.5809L355.891 11.4283L356.32 14.6662C356.642 17.1113 356.774 20.0047 356.856 26.4817L356.962 35.0591L355.826 35.7127C352.055 37.8849 348.724 40.5771 345.672 43.9236C344.139 45.6039 343.232 46.6949 340.352 50.319C337.596 53.7831 334.994 55.7021 333.048 55.7021C331.248 55.7021 329.061 54.128 328.688 52.5643L328.526 51.8836L330.186 52.0378C332.278 52.2327 333.22 51.6612 332.937 50.3677C332.313 47.5252 327.967 48.5413 324.928 52.241C320.074 58.1526 324.972 67.474 332.925 67.4566C338.58 67.4446 342.318 64.0879 346.744 55.0496C350.888 46.5792 351.774 44.8898 353.228 42.6872C354.068 41.4139 355.195 39.8983 355.733 39.3192L356.709 38.266L356.594 40.2552C356.461 42.5566 355.601 51.0804 355.274 53.3431C354.921 55.7932 354.884 55.7021 356.188 55.7021C357.895 55.7021 361.012 55.0496 363.041 54.2678C365.5 53.3202 366.94 52.1239 367.898 50.2337L368.668 48.7173L368.505 40.6831C368.287 29.8528 368.8 17.0287 369.667 11.5851C369.832 10.5553 369.92 9.63387 369.864 9.5372C369.806 9.44077 365.947 9.36845 361.29 9.37664C353.247 9.39069 352.683 9.41994 350.127 9.95989Z" fill="#EC3424"/>
</g>
</g>
<g clip-path="url(#clip2_8_1144)">
<path d="M847 0H385V77H847V0Z" fill="white"/>
<path fill-rule="evenodd" clip-rule="evenodd" d="M411.121 13.089V14.8135L409.334 14.8811L407.547 14.9486V21.8856L409.334 21.9531L411.121 22.0206V25.7009H414.809V29.1501L416.596 29.2176L418.383 29.2851L418.45 31.0772L418.517 32.8693H421.726V14.8524L419.939 14.7849L418.152 14.7174L418.084 13.0409L418.017 11.3645H411.121V13.089ZM429.103 13.0987V14.833H425.645V32.8693H429.103V36.3378H447.085V32.8693H450.543V25.7009H447.085V22.2324H439.939V25.7009H436.25V22.0206L438.037 21.9531L439.823 21.8856V14.9486L438.037 14.8811L436.25 14.8135V11.3645H429.103V13.0987ZM400.285 23.9667V25.7009H396.596V32.8693H400.285V36.3378H418.037V32.8693H414.579V29.42L412.792 29.3526L411.005 29.2851L410.938 27.493L410.871 25.7009H407.432V22.2324H400.285V23.9667ZM432.561 27.4352V29.1693H429.103V32.8693H432.792V29.4006H436.25V25.7009H432.561V27.4352ZM421.956 34.6034V36.3378H425.414V32.8693H421.956V34.6034ZM418.498 38.3031V40.0375H421.726V36.569H418.498V38.3031ZM425.645 38.2929V40.0375H429.123L429.103 38.3609L429.113 36.569H427.374L425.645 36.5486V38.2929ZM400.237 42.0608L400.17 43.8527L398.383 43.9202L396.596 43.9879V50.9054H400.266L400.333 52.6975L400.4 54.4896H407.317L407.384 52.6975L407.451 50.9054H410.871L410.938 49.1133L411.005 47.3212L412.792 47.2537L414.579 47.1862V43.7372H418.037V40.2687H400.304L400.237 42.0608ZM421.956 42.0028V43.7372H425.414V40.2687H421.956V42.0028ZM429.083 41.9451L429.103 43.7372L431.005 43.7567H432.792V47.2057H436.231L436.298 48.9978L436.365 50.7899L438.142 50.8571L439.919 50.9246L439.987 52.707L440.054 54.4896H446.97L447.037 52.6975L447.105 50.9054H450.543V43.9684H447.085V40.2687H429.083V41.9451ZM418.45 45.6448L418.383 47.3212L416.605 47.3886L414.828 47.4561L414.761 49.2385L414.694 51.0211L412.917 51.0884L411.14 51.1558L411.072 52.9382L411.005 54.7208L409.213 54.7885L407.42 54.856L407.484 58.257L407.547 61.6578L409.334 61.7253L411.121 61.7927V65.473H418.017L418.085 63.6811L418.152 61.889L419.939 61.8215L421.726 61.754V43.9684H418.518L418.45 45.6448ZM425.645 52.8709V61.7733H429.103V65.473H436.25V61.7927L438.037 61.7253L439.823 61.6578L439.887 58.1893L439.95 54.7208H436.365L436.298 52.9382L436.231 51.1558L434.454 51.0884L432.676 51.0211L432.609 49.229L432.542 47.4369H429.103V43.9684H425.645V52.8709Z" fill="#EC3424"/>
<path fill-rule="evenodd" clip-rule="evenodd" d="M462 77.0007H539V0H462V77.0007ZM500.191 13.1803C499.189 22.1797 497.708 27.0309 494.807 30.813C491.767 34.775 484.792 37.3916 475.026 38.2337C471.595 38.5295 471.58 38.5332 473.181 38.6937C480.246 39.4017 482.312 39.7443 485.811 40.7887C494.916 43.5066 498.418 48.8899 500.04 62.6643C500.302 64.8899 500.542 66.919 500.573 67.1732C500.604 67.4277 500.705 66.3246 500.797 64.7222C501.068 60.0178 502.239 54.3091 503.627 50.923C506.919 42.8932 512.07 40.2884 527.819 38.6918L529.433 38.5281L527.242 38.349C521.279 37.8613 515.829 36.7598 513 35.471C512.331 35.1658 511.704 34.9163 511.607 34.9163C511.236 34.9163 507.954 32.6768 507.211 31.9158C503.721 28.345 501.31 20.9259 500.782 12.1397L500.615 9.36494L500.191 13.1803Z" fill="#EC3424"/>
<path fill-rule="evenodd" clip-rule="evenodd" d="M574.071 16.634L570.653 20.0484L572.971 22.3511L575.289 24.6537L574.198 25.7584C573.598 26.3658 572.996 26.8626 572.862 26.8626C572.727 26.8626 571.629 25.8736 570.421 24.665L568.226 22.4676L564.918 25.7604C563.098 27.5716 561.609 29.1234 561.609 29.2092C561.609 29.4135 568.096 35.8808 568.301 35.8808C568.387 35.8808 569.438 34.8956 570.634 33.6917C571.952 32.3664 572.916 31.5679 573.078 31.6683C573.226 31.7595 573.777 32.3057 574.302 32.8818L575.258 33.9294L564.433 44.714C558.479 50.6454 553.307 55.8127 552.94 56.1965L552.273 56.8944L555.605 60.2625L558.938 63.6303L568.102 54.4958C573.143 49.472 577.356 45.3613 577.465 45.3613C577.574 45.3613 581.708 49.4194 586.651 54.3794C591.595 59.3394 595.762 63.3974 595.911 63.3974C596.061 63.3974 597.651 61.9259 599.446 60.1275L602.709 56.8575L591.172 45.3539L579.636 33.8505L580.835 32.6232L582.034 31.3961L584.347 33.6935L586.661 35.991L590.079 32.5828L593.497 29.1749L590.105 25.7936L586.714 22.4121L584.5 24.6374C583.282 25.8611 582.196 26.8626 582.086 26.8626C581.975 26.8626 581.385 26.356 580.773 25.7368L579.661 24.6112L581.883 22.4024C583.106 21.1875 584.106 20.106 584.106 19.9987C584.106 19.8917 582.617 18.3225 580.798 16.512L577.49 13.2199L574.071 16.634ZM576.27 18.8354L575.059 20.0572L576.17 21.1477C577.518 22.4713 577.474 22.4694 578.705 21.2649C579.942 20.0544 579.941 20.0299 578.59 18.7031L577.48 17.6133L576.27 18.8354ZM567.092 27.9851C565.779 29.3147 565.779 29.3099 567.01 30.5143C568.231 31.7092 568.221 31.7094 569.46 30.4653C570.658 29.2616 570.625 28.9418 569.18 27.7372L568.17 26.895L567.092 27.9851ZM576.27 28.0848L575.059 29.3066L576.17 30.3971C577.529 31.7323 577.558 31.7328 578.742 30.4519C579.925 29.1728 579.931 29.269 578.59 27.9524L577.48 26.8626L576.27 28.0848ZM585.414 28.0586L584.287 29.2345L585.451 30.3946L586.614 31.5547L587.199 31.0964C587.52 30.8443 588.067 30.3018 588.414 29.8908L589.044 29.1438L587.917 28.0032C586.562 26.6313 586.787 26.6262 585.414 28.0586ZM555.571 35.0798L552.22 38.4265L555.639 41.8349L559.058 45.2438L562.456 41.8558L565.854 38.468L562.853 35.4982C561.202 33.8645 559.642 32.349 559.386 32.1303C558.934 31.7442 558.827 31.8274 555.571 35.0798ZM592.454 35.0723L589.096 38.4265L592.519 41.8358L595.941 45.2456L599.345 41.8328L602.749 38.4198L599.4 35.0705C597.557 33.2287 595.997 31.7208 595.931 31.7201C595.866 31.7191 594.301 33.2278 592.454 35.0723ZM557.768 37.2828L556.634 38.4304L557.846 39.6385L559.058 40.8466L560.268 39.6397L561.479 38.4327L560.558 37.4853C559.105 35.9901 559.049 35.9859 557.768 37.2828ZM576.338 37.1377C575.056 38.5104 575.055 38.5584 576.287 39.7635C577.504 40.9545 577.385 40.957 578.654 39.7095C579.942 38.4439 579.946 38.5332 578.542 37.1546L577.384 36.0179L576.338 37.1377ZM594.656 37.2712L593.511 38.4304L594.722 39.6385L595.934 40.8466L597.146 39.6385L598.358 38.4304L597.213 37.2712C596.583 36.6337 596.008 36.1121 595.934 36.1121C595.861 36.1121 595.286 36.6337 594.656 37.2712ZM572.033 41.497C570.362 43.0013 570.355 43.2534 571.947 44.5535L572.966 45.3869L574.12 44.2184L575.274 43.05L574.205 41.8933C572.949 40.5335 573.076 40.557 572.033 41.497ZM580.74 41.8959L579.595 43.0551L580.807 44.2632L582.019 45.4713L583.23 44.2632L584.442 43.0551L583.297 41.8959C582.667 41.2583 582.092 40.7367 582.019 40.7367C581.945 40.7367 581.37 41.2583 580.74 41.8959ZM567.001 46.4029C565.78 47.6375 565.775 47.5707 567.163 48.9337L568.311 50.0604L569.495 48.8732L570.68 47.6862L569.544 46.5238C568.193 45.141 568.247 45.1436 567.001 46.4029ZM585.546 46.3528C584.323 47.595 584.328 47.8035 585.617 49.0645L586.664 50.0892L587.872 48.8843L589.081 47.6797L587.936 46.5205C586.558 45.1262 586.741 45.1389 585.546 46.3528ZM562.384 51.0793C561.156 52.4129 561.144 52.2025 562.521 53.5547L563.665 54.6779L564.721 53.6616C566.021 52.4094 566.027 52.2164 564.808 50.9775C563.598 49.7487 563.609 49.7483 562.384 51.0793ZM571.842 55.6232C568.765 58.6928 566.248 61.3117 566.248 61.4434C566.248 61.5749 566.694 62.1191 567.239 62.6525L568.23 63.6222L572.745 59.1165C575.228 56.6384 577.365 54.6125 577.494 54.615C577.623 54.6174 579.75 56.6467 582.222 59.1244L586.717 63.6294L587.731 62.6497C588.288 62.1109 588.745 61.6023 588.745 61.5191C588.745 61.436 586.2 58.8199 583.09 55.7051L577.436 50.0421L571.842 55.6232ZM590.017 51.1452L588.872 52.3043L590.084 53.5124L591.296 54.7208L592.508 53.5124L593.719 52.3043L592.574 51.1452C591.944 50.5076 591.369 49.986 591.296 49.986C591.222 49.986 590.647 50.5076 590.017 51.1452ZM557.804 55.6427C556.495 56.9107 556.492 56.8135 557.89 58.1867L559.042 59.3176L560.251 58.1123L561.46 56.9067L560.325 55.7587C558.955 54.371 559.108 54.3782 557.804 55.6427ZM595.123 55.27C594.74 55.6251 594.225 56.1451 593.979 56.4259L593.531 56.9359L594.549 57.9701C595.815 59.2564 596.054 59.2557 597.326 57.9631L598.351 56.922L597.209 55.7663C595.876 54.4165 596.008 54.4478 595.123 55.27Z" fill="#EC3424" stroke="#EC3424"/>
<mask id="mask2_8_1144" style="mask-type:luminance" maskUnits="userSpaceOnUse" x="616" y="0" width="77" height="77">
<path d="M693 0H616V77H693V0Z" fill="white"/>
</mask>
<g mask="url(#mask2_8_1144)">
<path fill-rule="evenodd" clip-rule="evenodd" d="M616 38.7354V77.471H693V0H616V38.7354ZM651.926 11.1293C637.95 12.8021 627.471 24.5806 627.471 38.6171C627.471 51.4527 635.955 62.3549 648.437 65.5616C652.132 66.5106 657.705 66.5057 661.497 65.5509C667.372 64.07 672.709 60.6614 676.315 56.0852C677.551 54.5167 680.128 50.3571 680.128 49.9287C680.128 49.8174 680.344 49.2436 680.61 48.6538C682.382 44.7161 682.728 40.6017 682.649 24.4023L682.584 11.0165L667.956 10.9888C659.913 10.9736 652.698 11.0367 651.926 11.1293ZM654.774 17.3535C654.136 23.3368 652.338 28.8142 650.012 31.865C647.651 34.9594 642.349 37.1998 635.099 38.1653C632.52 38.5088 632.604 38.6484 635.661 39.1019C638.291 39.492 642.245 40.3988 643.203 40.8311C643.623 41.0215 644.564 41.4441 645.295 41.7702C650.622 44.1528 653.294 49.2083 654.711 59.5839L655.001 61.7162L655.298 59.2285C656.942 45.4662 661.2 41.035 674.743 38.9975C676.881 38.6756 677.725 38.3801 676.508 38.3801C675.058 38.3801 668.416 37.0776 667.372 36.5885C666.987 36.4078 666.198 36.0937 665.623 35.8906C660.243 33.9916 656.805 28.715 655.674 20.6115C655.463 19.113 655.214 17.4073 655.119 16.8209L654.945 15.7548L654.774 17.3535Z" fill="#EC3424"/>
</g>
</g>
</g>
<defs>
<clipPath id="clip0_8_1144">
<rect width="693" height="77" fill="white"/>
</clipPath>
<clipPath id="clip1_8_1144">
<rect width="385" height="77" fill="white"/>
</clipPath>
<clipPath id="clip2_8_1144">
<rect width="462" height="77" fill="white" transform="translate(385)"/>
</clipPath>
</defs>
</svg>
