<svg width="1000" height="362" viewBox="0 0 1000 362" fill="none" xmlns="http://www.w3.org/2000/svg">
    <g clip-path="url(#clip0_8_1056)">
        <path fill-rule="evenodd" clip-rule="evenodd"
            d="M157.087 53.174C147.964 62.564 133.258 77.697 124.407 86.804L108.313 103.361L101.915 99.181C98.396 96.881 95.02 95 94.412 95C93.804 95 91.776 94.214 89.904 93.253C84.999 90.737 64.001 90.737 59.096 93.253C57.224 94.214 55.196 95 54.588 95C51.736 95 41 103.224 41 105.409C41 107.032 47.443 113.921 64.073 130.08C111.02 175.699 108.724 173.133 105.492 176.366C102.618 179.239 96.999 191.639 95.889 197.556C94.579 204.54 95.423 219.045 97.362 222.871C98.095 224.317 99.755 227.617 101.051 230.204C103.578 235.248 108.43 241 110.157 241C110.738 241 116.678 235.32 123.357 228.379C130.889 220.555 138.436 212.746 146 204.952C179.172 170.814 177.391 172.356 180 175.5C180.685 176.325 181.865 177 182.622 177C183.38 177 184 177.338 184 177.752C184 180.683 201.208 186.003 210.654 185.992C221.932 185.98 238.778 179.431 243.4 173.261L245.301 170.725L225.4 151.253C214.18 140.274 202.963 129.291 191.75 118.305C184.188 110.893 178 104.401 178 103.879C178 102.919 180.946 97.922 182.055 97C183.285 95.977 186.224 89.303 188.152 83.151C191.268 73.208 189.905 57.281 185.207 48.728C176.375 32.648 177.15 32.525 157.087 53.174ZM117.009 116C116.729 115.725 115.934 114.487 115.242 113.25C113.789 110.654 114.657 110.371 117.647 112.465C129.175 120.54 153.825 120.54 165.353 112.465C169.058 109.871 170.107 110.705 167.882 114.475C159.655 128.419 160.605 152.736 169.788 163.256C172.247 166.073 170.646 166.217 165.902 163.606C152.451 156.202 134.534 156.407 120.262 164.129C117.283 165.74 115.039 166.708 115.277 166.28C121.283 155.426 122.347 151.513 122.424 140C122.495 129.195 120.232 119.164 117.009 116Z"
            fill="#fff" />
        <path
            d="M135.25 240.225C109.813 265.68 89 286.999 89 287.599C89 290.164 105.333 299.622 114 302.076C116.475 302.777 118.981 303.709 119.569 304.147C122.939 306.66 156.208 306.681 159.329 304.172C159.973 303.655 162.075 302.894 164 302.482C165.925 302.07 169.068 300.893 170.985 299.867C172.902 298.84 174.808 298 175.22 298C177.706 298 195.553 285.335 203.25 278.109C207.465 274.151 207.754 272.383 205.44 264.688C204.405 261.219 203.405 257.739 202.44 254.25C201.648 251.363 200.322 246.637 199.494 243.75C198.666 240.863 197.57 236.7 197.058 234.5C196.547 232.3 195.174 227.125 194.007 223C190.951 212.195 189.05 205.202 187.617 199.5C185.21 189.923 186.579 188.859 135.25 240.225Z"
            fill="#fff" />
        <path
            d="M314 141.023C314 142.354 314.675 143 316.066 143C321.845 143 321.771 142.608 321.258 170.713C320.734 199.351 320.524 200.304 314.495 201.435C311.844 201.932 310.961 202.561 311.197 203.785C311.708 206.436 335 206.498 335 203.849C335 202.686 334.016 201.822 332.25 201.436C330.738 201.104 328.938 200.66 328.25 200.448C326.874 200.024 326.78 191.389 327.876 166.086C328.581 149.808 328.35 149.811 334.586 166C336.599 171.225 339.09 177.388 340.123 179.695C341.155 182.002 342 184.563 342 185.386C342 186.209 342.4 187.129 342.889 187.432C343.378 187.734 344.086 189.207 344.462 190.706C344.838 192.204 346.013 195.334 347.073 197.66C348.133 199.987 349 202.31 349 202.823C349 203.336 349.607 204.259 350.348 204.874C352.467 206.633 354.275 203.847 360 190C362.713 183.439 364.183 180.034 366.938 173.934C368.072 171.423 369 168.611 369 167.684C369 166.758 369.414 166 369.921 166C370.427 166 371.128 164.694 371.479 163.098C372.315 159.289 375.699 152.693 376.295 153.707C377.153 155.164 378.093 198.484 377.291 199.596C376.856 200.199 375.233 201.002 373.684 201.382C371.744 201.857 370.97 202.605 371.197 203.786C371.663 206.205 395.5 206.412 395.5 203.997C395.5 203.174 394.051 202.073 392.281 201.552C388.012 200.295 387.915 199.94 386.937 182C385.105 148.4 385.713 143 391.329 143C392.333 143 393 142.202 393 141C393 139.134 392.333 139 383.079 139H373.159L372.446 142.246C372.054 144.031 371.156 146.844 370.451 148.496C369.747 150.148 368.208 153.975 367.031 157C365.855 160.025 364.487 163.4 363.991 164.5C363.495 165.6 361.916 169.425 360.482 173C359.048 176.575 357.283 180.85 356.559 182.5C355.835 184.15 355.014 186.175 354.734 187C354.276 188.351 353.27 186.503 349.021 176.5C347.683 173.349 341.003 156.064 338.78 150C334.753 139.014 335.461 139.53 324.065 139.273C314.63 139.061 314 139.171 314 141.023Z"
            fill="#fff" />
        <path fill-rule="evenodd" clip-rule="evenodd"
            d="M428.76 140.267C426.99 141.652 425.02 145.968 419.527 160.5C417.448 166 415.129 171.918 414.373 173.651C413.618 175.384 413 177.26 413 177.82C413 178.38 412.346 180.112 411.547 181.669C410.749 183.226 409.074 187.2 407.826 190.5C404.644 198.915 403.356 200.679 399.887 201.373C397.684 201.813 396.943 202.464 397.189 203.74C397.694 206.358 417.317 206.31 417.821 203.689C418.056 202.469 417.271 201.804 415.075 201.365C411.449 200.64 410.94 196.518 413.61 189.5C414.447 187.3 415.4 184.6 415.728 183.5C416.658 180.383 417.866 180.032 427.703 180.015L436.906 180L438.408 183.25C444.687 196.843 445.206 200.576 440.944 201.512C438.832 201.976 437.987 202.692 438.206 203.833C438.698 206.385 461 206.426 461 203.876C461 202.796 459.696 201.725 457.5 201C455.575 200.365 454 199.176 454 198.358C454 197.54 453.056 194.537 451.903 191.685C450.737 188.8 449.597 185.905 448.483 183C447.755 181.075 445.549 175.44 443.58 170.478C441.611 165.516 439.985 161.016 439.966 160.478C439.947 159.94 439.063 157.7 438 155.5C436.937 153.3 436.053 150.739 436.034 149.809C436.015 148.879 435.585 147.861 435.077 147.548C434.569 147.234 433.865 145.663 433.513 144.058C432.652 140.14 430.805 138.667 428.76 140.267ZM423.286 164C424.183 161.525 425.403 158.187 425.997 156.583C427.303 153.056 429.191 154.911 430.493 161C430.904 162.925 431.799 165.625 432.48 167C433.162 168.375 434.016 170.738 434.379 172.25L435.038 175H427.113C418.872 175 417.843 174.078 420.972 169.5C421.348 168.95 422.389 166.475 423.286 164Z"
            fill="#fff" />
        <path
            d="M486 139.908C459.006 149.212 453.846 185.484 477.357 200.669C487.474 207.203 504.369 207.745 515.632 201.895C518.305 200.508 521.639 188.475 519.924 186.409C518.28 184.428 516.262 185.79 515.598 189.33C513.671 199.603 498.389 204.928 487.308 199.189C471.586 191.047 468.33 163.25 481.506 149.648C489.315 141.586 503.857 140.479 510.513 147.441C512.533 149.554 515 153.965 515 155.465C515 156.364 515.882 157 517.129 157C519.17 157 519.229 156.698 518.561 149.75C518.177 145.762 517.238 141.86 516.475 141.079C514.849 139.415 490.18 138.467 486 139.908Z"
            fill="#fff" />
        <path
            d="M460.31 37.031C454.89 38.123 447 43.161 447 45.53C447 45.867 446.379 46.763 445.621 47.522C442.127 51.016 442.569 64.051 446.327 68.358C450.55 73.199 460.494 72.696 464.312 67.45C466.935 63.845 466.255 58.607 463.107 58.162C460.922 57.853 460.768 58.092 461.332 60.912C462.08 64.648 460.765 64.975 459.161 61.453C455.782 54.038 460.283 40 466.039 40C467.893 40 468 40.759 468 53.918V67.837L464.669 69.896C461.376 71.931 453.721 79.731 447.072 87.826C443.516 92.156 439.704 93.304 437.2 90.8C435.428 89.028 435.728 88.178 438.25 87.82C441.96 87.293 441.047 84.475 437.222 84.65C425.445 85.191 425.82 103.658 437.669 106.632C445.565 108.613 451.777 103.23 459.129 88.035C461.914 82.28 465.106 76.43 466.221 75.035L468.25 72.5L467.545 82.75C467.157 88.388 467.079 93 467.371 93C471.227 93 478.185 90.402 480.238 88.196C482.725 85.522 482.751 85.307 483.336 62.36C483.661 49.633 484.056 38.608 484.213 37.86C484.556 36.235 467.238 35.635 460.31 37.031Z"
            fill="#fff" />
        <path
            d="M494.004 58.75C494.006 59.163 494.906 60.973 496.004 62.774C500.334 69.876 496.716 81 490.077 81C488.221 81 488 81.597 488 86.625V92.25L491.083 91.633C497.091 90.432 501 80.545 501 66.553C501 60.171 501.067 60 503.588 60H506.176L505.838 76.038L505.5 92.077L513 91.788C520.377 91.505 520.494 91.459 520.106 89C519.358 84.253 519.587 62.493 520.409 60.25L521.233 58H507.617C500.127 58 494.002 58.337 494.004 58.75Z"
            fill="#fff" />
        <path
            d="M524.089 59.607C526.135 62.073 526.947 63.615 536.222 82.656C541.738 93.98 540.561 95.947 528.25 95.989C525.066 96 525 96.092 525 100.5V105L528.75 104.993C534.665 104.983 539.79 100.753 543.28 93C553.106 71.177 556.15 64.901 558.315 62L560.182 59.5L559.892 64.217C559.538 69.964 560.205 70.886 562.082 67.248C563.914 63.699 567 61.075 569.394 61.033C571.194 61.002 571.261 61.766 570.765 76.541L570.243 92.083L577.271 91.791L584.3 91.5L584.086 76.25C583.902 63.195 584.09 61 585.388 61C586.996 61 594 67.679 594 69.212C594 69.711 594.433 69.851 594.962 69.524C595.578 69.143 595.578 68.019 594.962 66.399C594.433 65.008 594 62.549 594 60.935V58H552.126L552.679 61.408C553.164 64.401 549.082 76 547.543 76C546.027 76 541.857 64.269 542.332 61.34L542.874 58H532.815C523.689 58 522.879 58.149 524.089 59.607Z"
            fill="#fff" />
        <path fill-rule="evenodd" clip-rule="evenodd"
            d="M607.732 58.004C606.209 58.462 603.284 60.516 601.232 62.568C597.537 66.263 597.5 66.38 597.5 74.4C597.5 87.281 601.752 91.5 614.735 91.5H622.971L627.007 87.463C633.651 80.82 633.903 69.221 627.551 62.485C622.775 57.421 615.295 55.73 607.732 58.004ZM612.5 88.399C609.856 86.435 609.431 62.603 612.01 60.972C616.905 57.878 618.462 61.171 618.462 74.622C618.462 87.609 616.753 91.558 612.5 88.399Z"
            fill="#fff" />
        <path fill-rule="evenodd" clip-rule="evenodd"
            d="M642.25 59.183C636.446 61.13 634.59 63.01 637 64.5C638.437 65.388 638.331 100.269 636.887 101.713C634.671 103.929 637.175 105 644.566 105H652.014L651.387 98.25L650.759 91.5L656.096 91.861C662.355 92.285 666.548 90.431 670.131 85.657C673.413 81.283 673.648 66.074 670.5 61.759C666.916 56.846 656.537 55.606 652.532 59.611C651.156 60.987 651 60.932 651 59.071C651 56.527 650.134 56.538 642.25 59.183ZM651.607 87.418C650.781 85.267 650.833 65.5 651.667 64.667C653.048 63.285 656.969 64.074 657.965 65.934C659.692 69.161 659.282 85.575 657.429 87.429C655.406 89.451 652.385 89.446 651.607 87.418Z"
            fill="#fff" />
        <path fill-rule="evenodd" clip-rule="evenodd"
            d="M687.5 58.043C677.905 61.184 673.112 74.778 678.455 83.699C685.271 95.08 704.578 94.57 710.423 82.854C712.101 79.49 712.632 68 711.108 68C710.618 68 709.949 66.933 709.622 65.629C708.086 59.509 695.846 55.312 687.5 58.043ZM691.559 87.113C689.657 83.436 689.396 66.419 691.181 62.501C694.544 55.121 699.618 64.868 698.757 77.056C697.995 87.866 694.484 92.771 691.559 87.113Z"
            fill="#fff" />
        <path fill-rule="evenodd" clip-rule="evenodd"
            d="M717.5 75.109V92.217L730.714 91.831C742.151 91.497 744.302 91.166 746.714 89.372C751.606 85.734 750.584 75 745.345 75C743.312 75 743.731 73.423 746.2 71.783C749.547 69.561 749.25 63.472 745.644 60.37C743.058 58.146 742.108 58 730.194 58L717.5 58.001V75.109ZM735.056 69.895C732.858 74.002 731 72.447 731 66.5C731 61.709 731.252 61 732.955 61C735.387 61 736.744 66.741 735.056 69.895ZM735.443 86.777C732.405 91.116 731 89.605 731 82C731 74.477 732.054 73.247 735.278 77.011C737.42 79.514 737.494 83.85 735.443 86.777Z"
            fill="#fff" />
        <path
            d="M765.602 57.975C754.407 61.571 750.214 79.06 758.453 87.793C761.552 91.078 762.409 91.426 768.176 91.739C775.769 92.151 778.367 90.976 782.326 85.343C785.455 80.892 785.731 77.412 782.716 80.427C776.075 87.068 764 79.365 764 68.488C764 59.062 771.365 56.813 778.154 64.166C780.269 66.458 782 68.959 782 69.725C782 70.491 782.45 70.84 783 70.5C784.302 69.696 784.303 59.305 783.002 58.501C781.22 57.4 768.582 57.018 765.602 57.975Z"
            fill="#fff" />
        <path
            d="M789.5 75.038V92.076L797 91.788C803.831 91.526 804.479 91.321 804.264 89.5C802.828 77.356 802.785 76 803.843 76C804.464 76 805.47 77.98 806.079 80.4C808.084 88.362 811.716 91.5 818.927 91.5C824.951 91.5 829.776 88.978 825.224 88.208C824.238 88.041 822.332 85.419 820.769 82.077C818.46 77.141 817.327 75.904 813.441 74.077L808.844 71.916L812.172 68.09C814.002 65.986 817.175 63.192 819.223 61.882C824.254 58.663 823.96 58 817.5 58H812L811.973 61.25C811.945 64.549 806.314 72 803.847 72C802.726 72 803.15 65.297 804.591 60.25C805.218 58.053 805.048 58 797.367 58L789.5 58.001V75.038Z"
            fill="#fff" />
        <path fill-rule="evenodd" clip-rule="evenodd"
            d="M817 139.171C812.517 140.436 808.862 144.439 804.876 152.448C800.069 162.108 792.046 170 787.035 170C785.094 170 785 169.408 785 157.107C785 143.427 785.154 143 790.082 143C791.302 143 792 142.306 792 141.093C792 139.322 791.139 139.185 780 139.185C768.861 139.185 768 139.322 768 141.093C768 142.306 768.698 143 769.918 143C775.158 143 775 142.084 775 172.544V200.873L771.75 201.187C769.367 201.416 768.422 202.046 768.207 203.546C767.926 205.511 768.394 205.593 780 205.593C791.606 205.593 792.074 205.511 791.793 203.546C791.578 202.046 790.633 201.416 788.25 201.187L785 200.873V175H787.435C794.084 175 798.859 179.234 804.164 189.833C805.999 193.5 807.837 196.65 808.25 196.833C808.663 197.017 809.008 197.692 809.017 198.333C809.053 200.756 813.731 203.8 819.017 204.842C827.182 206.45 846.5 205.827 846.5 203.955C846.5 203.155 845.038 202.069 843.25 201.543C839.975 200.579 838.385 195.116 840.923 193.548C841.431 193.234 842.166 191.522 842.557 189.743C842.947 187.964 843.965 185.044 844.819 183.254L846.37 180H856.21C866.036 180 866.051 180.004 867.045 182.75C867.593 184.262 868.47 186.4 868.994 187.5C870.378 190.408 872.968 198.306 872.985 199.671C872.993 200.314 871.65 201.138 870 201.5C868.059 201.926 867 202.777 867 203.911C867 205.51 868.283 205.644 881.75 205.452C898.166 205.218 902.069 204.374 905.625 200.292C909.489 195.856 909.942 195.222 911.165 192.538C911.801 191.142 912.699 190 913.161 190C913.622 190 914 189.564 914 189.031C914 188.499 915.863 185.349 918.139 182.031C921.816 176.674 922.653 176 925.639 176H929V200.777L925.438 201.446C922.815 201.938 921.961 202.561 922.201 203.807C922.485 205.28 924.016 205.5 934 205.5C943.984 205.5 945.515 205.28 945.799 203.807C946.039 202.56 945.183 201.937 942.547 201.443L938.97 200.772L939.235 172.136L939.5 143.5L942.75 143.187C945.186 142.952 946 142.39 946 140.943C946 138.302 915.509 138.519 910.5 141.196C896.563 148.643 895.999 162.89 909.3 171.486C910.984 172.574 911.881 173.867 911.551 174.727C910.983 176.208 903.981 187.117 903.032 188C902.736 188.275 901.173 190.447 899.559 192.826C895.496 198.812 892.409 201 888.026 201C883.862 201 883.67 200.725 879.284 188.5C877.903 184.65 875.924 179.612 874.886 177.305C873.849 174.998 873 172.692 873 172.182C873 171.373 872.219 169.384 868.021 159.5C867.554 158.4 865.951 154.02 864.458 149.766C860.676 138.989 859.555 137.72 856.848 141.152C854.795 143.754 853.876 145.881 846.537 165C844.532 170.225 842.241 175.918 841.446 177.651C840.65 179.384 840 181.24 840 181.774C840 182.779 837.287 189.349 833.815 196.75C831.873 200.89 831.696 201 826.984 201C821.019 201 817.777 197.624 813.472 186.932C811.938 183.119 810.356 180 809.958 180C809.559 180 809.008 179.139 808.733 178.086C808.212 176.096 801.738 171.49 798.578 170.861C796.933 170.534 796.989 170.267 799.176 168C803.252 163.774 807.572 157.72 809.923 152.939C812.858 146.969 814.876 145.704 818.481 147.575C822.66 149.743 824.781 149.324 826.505 145.991C828.206 142.702 827.169 139 824.547 139C823.786 139 822.564 138.816 821.832 138.591C821.099 138.366 818.925 138.627 817 139.171ZM910.5 157.086C910.5 149.482 911.892 146.969 917.492 144.462C919.146 143.721 922.3 143.201 924.5 143.307L928.5 143.5L928.779 157.372L929.058 171.245L922.981 170.805C913.793 170.14 910.5 166.521 910.5 157.086ZM852.994 161.151C852.997 160.409 853.781 158.159 854.735 156.151C856.153 153.165 856.539 152.864 856.855 154.5C857.068 155.6 857.703 157.625 858.266 159C859.433 161.845 863.989 174.37 863.996 174.75C863.998 174.887 860.436 175 856.081 175H848.161L849.114 171.551C849.637 169.654 850.723 166.841 851.527 165.301C852.33 163.76 852.99 161.893 852.994 161.151Z"
            fill="#fff" />
        <path
            d="M725.12 140.153C714.289 143.268 704.703 154.63 702.847 166.556C698.679 193.329 721.596 212.175 748.846 204.383C755.562 202.463 757.583 200.887 758.395 196.94C758.728 195.323 759.277 192.646 759.615 190.991C760.99 184.262 756.629 184.147 754.533 190.857C749.743 206.196 721.439 203.999 716.494 187.905C716.088 186.582 715.267 184.891 714.669 184.147C714.072 183.402 713.402 178.652 713.181 173.59C712.724 163.134 714.682 156.828 720.409 150.321C730.377 138.995 749.862 140.962 754.073 153.72C754.84 156.045 755.711 157.002 756.846 156.766C758.621 156.396 758.696 155.266 757.566 145.883L756.889 140.265L751.695 139.641C744.144 138.734 729.041 139.025 725.12 140.153Z"
            fill="#fff" />
        <path
            d="M527.507 139.25C526.488 143.567 525.236 154.506 525.675 155.25C526.799 157.154 528.666 155.589 530.451 151.246C533.296 144.324 535.247 143.073 543.25 143.033L550 143V200.777L546.5 201.434C544.083 201.888 543 202.632 543 203.842C543 205.412 544.236 205.593 555 205.593C565.764 205.593 567 205.412 567 203.842C567 202.632 565.917 201.888 563.5 201.434L560 200.777V143L566.75 143.032C570.517 143.05 574.217 143.61 575.124 144.3C576.984 145.716 581 152.847 581 154.735C581 156.378 583.964 156.392 584.115 154.75C584.243 153.361 584.192 152.764 583.174 143.788C582.542 138.213 582.237 137.549 580.481 137.932C575.853 138.94 532.633 139.033 531.637 138.037C529.919 136.319 528.07 136.863 527.507 139.25Z"
            fill="#fff" />
        <path
            d="M599.25 139.745C589.168 140.105 587.139 141.564 593.516 143.87L597.031 145.141L596.766 172.757L596.5 200.374L593.25 201.215C590.967 201.807 590 202.644 590 204.029C590 205.932 590.769 205.999 612.25 205.985C636.996 205.968 636.531 206.069 637.542 200.498C637.941 198.299 638.882 195.285 639.634 193.8C641.534 190.044 641.342 188 639.089 188C637.812 188 636.451 189.502 634.987 192.527C631.858 198.991 629.063 200.134 617.23 199.786L607.5 199.5L607.219 187.25L606.938 175H613.887C622.638 175 623.742 175.447 625.523 179.709C628.099 185.875 629.5 183.336 629.5 172.5C629.5 162.04 628.175 159.254 625.777 164.671C623.8 169.136 622.064 169.934 614.25 169.968L607 170V145H617.066C628.377 145 630.337 145.661 631.843 149.979C632.553 152.017 633.564 153 634.948 153C637.308 153 637.32 152.945 636.045 148.116C635.52 146.127 634.837 143.262 634.526 141.75L633.962 139L621.231 139.208C614.229 139.322 604.337 139.564 599.25 139.745Z"
            fill="#fff" />
        <path
            d="M648 141.041C648 142.377 648.88 142.958 651.25 143.187L654.5 143.5L654.765 172.25C654.992 196.822 654.82 201 653.58 201C650.603 201 647.043 202.948 647.56 204.295C648.423 206.544 671.361 206.082 671.799 203.807C672.039 202.56 671.183 201.937 668.547 201.443L664.97 200.772L665.235 172.136L665.5 143.5L669 143.216C673.688 142.837 681.102 146.662 682.861 150.368C688.342 161.917 682.414 174 671.268 174C667.115 174 665.783 175.13 668.186 176.615C669.789 177.605 680.209 177.257 683.141 176.114C700.506 169.348 697.815 143.568 679.379 140.072C669.787 138.253 648 138.926 648 141.041Z"
            fill="#fff" />
        <path
            d="M759.5 241C758.459 242.685 759.972 244 762.952 244C766.968 244 767 244.236 767 273.51C767 302.117 766.833 303 761.429 303C759.937 303 759 303.578 759 304.5C759 305.753 761.056 306 771.5 306C781.499 306 784 305.722 784 304.611C784 303.816 782.505 302.942 780.5 302.566C775.801 301.684 775.531 296.889 779.898 291.846C781.491 290.006 785.796 284.9 789.465 280.5C795.816 272.881 801.813 265.811 806.762 260.107L809.023 257.5L808.762 279.5L808.5 301.5L805.25 302.457C798.026 304.583 801.524 306 814 306C823.573 306 826 305.719 826 304.611C826 303.825 824.533 302.947 822.62 302.589C818.137 301.748 818 300.868 818 273C818 245.306 818.163 244.214 822.356 243.805C824.386 243.607 825.6 242.886 825.815 241.75C826.116 240.162 825.031 240 814.073 240C802.798 240 802 240.128 802 241.937C802 243.391 802.81 243.951 805.25 244.187C811.361 244.776 810.301 248.997 801.404 259.5C797.211 264.45 791.917 270.704 789.64 273.398C787.363 276.092 785.05 278.793 784.5 279.399C783.95 280.005 782.029 282.214 780.23 284.308L776.961 288.114L777.23 266.316L777.5 244.518L780.488 244.002C782.262 243.695 783.612 242.777 783.811 241.742C784.198 239.735 760.725 239.018 759.5 241Z"
            fill="#fff" />
        <path
            d="M706 241.937C706 243.391 706.81 243.951 709.25 244.187L712.5 244.5V301.5L709.25 302.457C702.026 304.583 705.524 306 718 306C730.476 306 733.974 304.583 726.75 302.457L723.5 301.5V244.5L729.212 244.692C736.719 244.944 740.147 247.447 742.511 254.402C746.151 265.109 739.594 274.949 728.764 275.033L724.5 275.067L726.982 277.131C732.891 282.047 746.829 276.304 751.334 267.096C753.156 263.374 753.657 252 752 252C751.45 252 751 251.378 751 250.619C751 248.081 744.625 242.966 739.603 241.475C731.382 239.033 706 239.382 706 241.937Z"
            fill="#fff" />
        <path
            d="M632 241.937C632 243.391 632.81 243.951 635.25 244.187L638.5 244.5V301.5L635.25 302.457C628.026 304.583 631.524 306 644 306C656.465 306 659.959 304.59 652.781 302.457C646.347 300.544 647.599 296.335 658 284.909C661.562 280.996 664.896 277.032 670.51 270.037C676.873 262.109 679.687 259 680.5 259C680.775 259 681 268.434 681 279.965C681 302.77 680.941 303 675.066 303C673.896 303 673 303.651 673 304.5C673 305.753 675.056 306 685.5 306C695.439 306 698 305.718 698 304.625C698 303.869 696.643 302.979 694.983 302.647C690.421 301.734 690 299.229 690 273C690 246.909 690.418 244.312 694.698 243.821C696.379 243.629 697.5 242.9 697.5 242C697.5 240.498 677.657 239.15 674.331 240.426C672.028 241.31 674.075 243.877 677.335 244.193C682.664 244.71 681.232 253.068 674.971 258C674.622 258.275 670.562 263 665.949 268.5C661.336 274 656.979 279.101 656.266 279.837C655.553 280.572 653.798 282.709 652.366 284.587C650.934 286.464 649.366 288 648.881 288C647.69 288 647.752 249.782 648.948 246.637C649.59 244.948 650.798 244.039 652.69 243.821C654.39 243.626 655.613 242.815 655.815 241.75C656.116 240.162 655.031 240 644.073 240C632.798 240 632 240.128 632 241.937Z"
            fill="#fff" />
        <path fill-rule="evenodd" clip-rule="evenodd"
            d="M591 239.942C576.359 240.409 573.5 240.745 573.5 242C573.5 242.924 574.651 243.631 576.497 243.84C580.956 244.346 580.968 244.426 580.985 272.668C581.002 302.11 581.063 301.71 576.403 302.584C574.368 302.966 573 303.813 573 304.691C573 307.339 608.242 306.045 613.698 303.196C620.02 299.895 623.302 294.979 623.802 288.063C624.72 275.365 616.432 269 598.98 269H590V245.223L593.585 244.55C603.854 242.624 612.794 246.04 616.187 253.187C618.367 257.778 620.193 259.115 621.468 257.052C621.79 256.531 620.804 252.369 619.277 247.802L616.5 239.5L612.5 239.442C610.3 239.41 600.625 239.635 591 239.942ZM590.5 300.5L590.222 286.75L589.944 273H594.846C606.494 273 614.044 279.261 613.984 288.872C613.929 297.643 603.183 304.885 594.617 301.923L590.5 300.5Z"
            fill="#fff" />
        <path
            d="M499.189 241.742C499.388 242.777 500.738 243.695 502.512 244.002L505.5 244.519L505.765 273.211L506.031 301.904L502.515 302.563C500.499 302.941 499 303.815 499 304.611C499 305.722 501.501 306 511.5 306C521.944 306 524 305.753 524 304.5C524 303.651 523.104 303 521.934 303C514.24 303 514.393 296.85 522.286 288.837C523.01 288.101 525.784 284.8 528.449 281.5C531.115 278.2 533.567 275.275 533.898 275C534.229 274.725 536.506 272.025 538.957 269C544.898 261.669 547.347 259.038 548.25 259.017C548.663 259.008 549 268.155 549 279.345C549 301.403 548.606 303 543.171 303C541.908 303 541 303.627 541 304.5C541 305.753 543.056 306 553.5 306C563.944 306 566 305.753 566 304.5C566 303.616 565.077 302.994 563.75 302.985C558.544 302.949 558.523 302.848 558.186 276.788C557.79 246.15 558.03 244.223 562.302 243.809C564.341 243.612 565.5 242.956 565.5 242C565.5 240.498 545.657 239.15 542.331 240.426C540.287 241.211 541.967 244 544.485 244C549.774 244 550.165 249.167 545.287 254.609C543.754 256.319 540.858 259.694 538.851 262.109C527.572 275.683 524.113 279.731 519.762 284.448L516.024 288.5L516.262 266.5L516.5 244.5L519.497 244.16C522.513 243.817 524.289 242.277 523.375 240.798C523.104 240.359 517.476 240 510.868 240C499.984 240 498.885 240.164 499.189 241.742Z"
            fill="#fff" />
        <path
            d="M455.505 241.244C432.902 249.109 425.976 279.923 442.956 297.074C449.587 303.772 456.728 306.298 468.767 306.205C475.946 306.15 479.984 305.655 482.174 304.563C483.897 303.703 485.841 303 486.493 303C489.347 303 492.576 288.092 490.059 286.537C488.628 285.652 486.333 288.458 485.499 292.109C484.348 297.148 475.278 303.002 468.624 302.999C465.597 302.998 457.46 299.756 454.706 297.453C440.521 285.593 440.476 259.938 454.619 248.349C464.855 239.961 483.05 243.847 485.487 254.941C485.952 257.058 486.75 258 488.079 258C490.692 258 490.814 256.581 488.993 247.378L487.781 241.257L480.948 240.128C470.957 238.478 462.371 238.855 455.505 241.244Z"
            fill="#fff" />
    </g>
    <defs>
        <clipPath id="clip0_8_1056">
            <rect width="1000" height="362" fill="white" />
        </clipPath>
    </defs>
</svg>